<?xml version="1.0" encoding="UTF-8"?>
<svg width="752pt" height="752pt" version="1.1" viewBox="0 0 752 752" xmlns="http://www.w3.org/2000/svg">
 <defs>
  <clipPath id="a">
   <path fill='white' d="m139.21 139.21h473.58v473.58h-473.58z"/>
  </clipPath>
 </defs>
 <g clip-path="url(#a)">
  <path fill='white' d="m139.21 139.21v473.58h473.58v-473.58zm234.91 96.508c8.3359 0 16.328 3.3047 22.219 9.1836 5.8945 5.8828 9.2031 13.859 9.2031 22.18 0 8.3164-3.3086 16.297-9.2031 22.18-5.8906 5.8828-13.883 9.1836-22.219 9.1836-8.3281-0.003906-16.32-3.3086-22.207-9.1914-5.8906-5.8789-9.1992-13.855-9.1953-22.172-0.003906-8.3164 3.3047-16.293 9.1953-22.172 5.8906-5.8828 13.879-9.1875 22.207-9.1914zm0 107.05c8.3359 0 16.328 3.3047 22.219 9.1875 5.8945 5.8789 9.2031 13.859 9.2031 22.176 0 8.3203-3.3086 16.297-9.2031 22.18-5.8906 5.8789-13.883 9.1836-22.219 9.1836-8.3281-0.003906-16.316-3.3086-22.207-9.1914-5.8906-5.8789-9.1992-13.855-9.1953-22.172-0.003906-8.3164 3.3047-16.289 9.1953-22.172 5.8906-5.8828 13.879-9.1875 22.207-9.1914zm0 107.05c8.3359 0 16.328 3.3047 22.219 9.1875 5.8945 5.8789 9.2031 13.859 9.2031 22.176 0 8.3203-3.3086 16.297-9.2031 22.18-5.8906 5.8828-13.883 9.1836-22.219 9.1836-8.3281-0.003906-16.316-3.3086-22.207-9.1875-5.8906-5.8828-9.1992-13.859-9.1953-22.176-0.003906-8.3125 3.3047-16.289 9.1953-22.172 5.8867-5.8828 13.879-9.1875 22.207-9.1914z" fill-rule="evenodd"/>
 </g>
</svg>
